<?xml version="1.0" encoding="utf-8"?>
<!-- Generator: Adobe Illustrator 25.2.3, SVG Export Plug-In . SVG Version: 6.00 Build 0)  -->
<svg version="1.1" id="Layer_1" xmlns="http://www.w3.org/2000/svg" xmlns:xlink="http://www.w3.org/1999/xlink" x="0px" y="0px"
	 viewBox="0 0 2632.99 2961.33" style="enable-background:new 0 0 2632.99 2961.33;" xml:space="preserve">
<style type="text/css">
	.st0{opacity:0.2;}
	.st1{fill:#390565;}
	.st2{fill:#FA9A2A;}
	.st3{fill:#FFFEFF;}
	.st4{opacity:0.3;}
	.st5{fill:#390176;}
	.st6{opacity:0.4;}
	.st7{fill:#FF6C6F;}
	.st8{fill:#F89B29;}
	.st9{fill:#FFFFFF;}
	.st10{opacity:0.35;}
	.st11{fill:#F95877;}
	.st12{fill:#FE6B6F;}
	.st13{fill:#FF0068;}
	.st14{opacity:0.5;}
</style>
<g>
	<g>
		<g class="st0">
			<ellipse class="st1" cx="1006.05" cy="2786.79" rx="1006.05" ry="174.54"/>
		</g>
		<g>
			<g>
				<path class="st2" d="M1923.12,2173.72c-1.7,252.47-265.03,413.86-265.03,413.86l-69.71-162.7l-35-81.64l-58.86-137.38
					c0,0,198.63-105.5,257.53-290.83c4.53-14.26,14.65-24.29,26.78-29.36c18.11-7.64,40.7-4.14,55.3,12.9
					c18.65,21.81,38.17,50.58,54.14,87.63C1908.91,2034,1923.66,2095.59,1923.12,2173.72z"/>
			</g>
			<g>
				<path class="st3" d="M1923.12,2173.72c-1.7,252.47-265.03,413.86-265.03,413.86l-69.71-162.7
					c375.88-106.62,210.02-496.28,190.45-539.22c18.11-7.64,40.7-4.14,55.3,12.9C1876.87,1948.47,1924.1,2035.03,1923.12,2173.72z"
					/>
			</g>
			<g class="st4">
				<path class="st5" d="M1923.12,2173.72c-1.7,252.47-265.03,413.86-265.03,413.86l-69.71-162.7l-35-81.64
					c394.14,29.31,317.46-362.59,317.46-362.59s6.38,1.27,17.43,5.55C1908.91,2034,1923.66,2095.59,1923.12,2173.72z"/>
			</g>
			<g class="st6">
				<path class="st3" d="M1627.32,2444.35l-93.86-219.03c0,0,198.63-105.5,257.53-290.83c4.53-14.26,14.65-24.29,26.78-29.36
					c5.89-2.49,12.26-3.77,18.67-3.81c-0.77-0.92-1.55-1.86-2.32-2.76c-14.6-17.04-37.19-20.54-55.3-12.9
					c-12.12,5.06-22.25,15.09-26.78,29.36c-58.91,185.34-257.53,290.83-257.53,290.83l93.86,219.03l69.71,162.7
					c0,0,9.02-5.53,23.7-16.12L1627.32,2444.35z"/>
			</g>
			<g>
				<path class="st5" d="M1658.07,2605.49c-1.82,0-3.65-0.28-5.42-0.84c-4.95-1.57-8.97-5.23-11.02-10l-163.55-381.76
					c-3.66-8.55-0.16-18.48,8.05-22.85c2.47-1.32,192.99-104.7,248.85-280.45c7.29-22.93,25.78-39.49,49.48-44.31
					c23.82-4.84,47.48,3.26,63.25,21.66c43.12,50.31,94.31,140.92,93.31,286.9c-1.78,259.45-262.5,422.21-273.6,429.01
					C1664.58,2604.59,1661.34,2605.49,1658.07,2605.49z M1517.25,2213.46l148.75,347.2c57.37-40.69,237.85-184.74,239.24-387.07
					c0.93-134.93-45.55-217.7-84.7-263.37c-7.2-8.4-18.03-12.09-28.96-9.87c-10.79,2.19-19.2,9.7-22.5,20.08
					C1717.34,2083.26,1565.16,2184.85,1517.25,2213.46z"/>
			</g>
		</g>
		<g>
			<g>
				<path class="st2" d="M1879.75,2718.59c-87.34,114.26-293.27,105.01-591.7,42.55c0,0-151.75,18.5-284.12,18.5
					s-284.12-18.5-284.12-18.5c-298.43,62.46-504.36,71.71-591.7-42.55c-76.38-99.9-112.8-314.06-13.87-372.18
					c98.88-58.13,188.26,24.29,188.26,24.29c26.44-14.9,58.71-29.45,71.52-35.1c3.6-1.61,5.7-2.48,5.7-2.48
					c36.07-175.45,87.09-304.08,127.79-387.23c10.52-21.47,20.35-39.92,29.06-55.35c22.49-39.77,37.49-59.49,37.49-59.49h859.75
					c0,0,34.32,45.18,77.02,136.8c38.7,83.15,84.32,204.57,117.33,365.27c0,0,43.38,18.5,77.21,37.58c0,0,89.38-82.42,188.26-24.29
					C1992.55,2404.53,1956.13,2618.69,1879.75,2718.59z"/>
			</g>
			<g>
				<path class="st3" d="M1879.75,2718.59c-87.34,114.26-293.27,105.01-591.7,42.55c0,0-151.75,18.5-284.12,18.5
					c-39.43,0-80.67-1.66-119.03-3.94c-42.31-2.53-81.25-5.89-110.66-8.76c-33.35-3.21-54.43-5.79-54.43-5.79
					c-38.27,8.03-75.02,15.14-110.22,21.23c-29.45,5.16-57.79,9.54-85,13.14c-193.66,25.61-329.73,10.42-396.48-76.92
					c-76.38-99.9-112.8-314.06-13.87-372.18c98.88-58.13,188.26,24.29,188.26,24.29c26.44-14.9,58.71-29.45,71.52-35.1
					c11,3.26,21.37,7.5,30.91,12.02c31.06,14.9,57.25,38.02,77.41,65.92c143.71,198.68,289.18,131.1,369.51,38.65
					c37.1-42.74,60.27-90.79,62.85-120.3c0.58-6.62,0.1-12.27-1.46-16.75c-1.56-4.38-3.31-8.76-5.31-13.05
					c-9.06-19.86-22.39-38.51-36.32-54.62c-11.34-13.1-23.76-25.17-37.05-36.22c-17.19-14.31-35.88-26.87-55.5-37.68
					c-212.36-116.89-214.79-252.62-218.15-283.04c22.49-39.77,13.14-59.49,13.14-59.49h859.75c0,0-9.35,19.72,13.14,59.49
					c-3.36,30.43-5.79,166.16-218.15,283.04c-34.81,19.18-66.55,43.81-92.55,73.9c-16.94,19.62-32.96,42.89-41.62,67.67
					c-23.66,67.57,205.83,409.57,430.9,98.39c20.15-27.9,46.35-51.02,77.41-65.92c9.54-4.53,19.91-8.76,30.91-12.02
					c12.8,5.65,45.08,20.2,71.52,35.1c0,0,89.38-82.42,188.26-24.29C1992.55,2404.53,1956.13,2618.69,1879.75,2718.59z"/>
			</g>
			<g class="st4">
				<path class="st5" d="M1951.03,2447.46c-8.36,69.33-35.41,141.45-71.29,188.37c-87.34,114.26-293.27,105.01-591.7,42.55
					c0,0-91.67,11.17-194.65,16.15c-11.01-71.47-34.85-261.47,1.23-379.38c0,0-65.71,115.31-56.22,345.88
					c0.8,19.44-14.62,35.84-34.08,35.84c-0.13,0-0.27,0-0.4,0c-0.12,0-0.24,0-0.36,0c-19.47-0.01-34.92-16.38-34.12-35.84
					c9.49-230.57-56.22-345.88-56.22-345.88c36.08,117.91,12.25,307.9,1.23,379.38c-9.99-0.48-19.87-1.02-29.57-1.6
					c-42.31-2.53-81.25-5.89-110.66-8.76c-33.35-3.21-54.43-5.79-54.43-5.79c-38.27,8.03-75.02,15.14-110.22,21.23
					c-29.45,5.16-57.79,9.54-85,13.14c-193.66,25.61-329.73,10.42-396.48-76.92c-35.88-46.92-62.93-119.04-71.29-188.37
					c-12.51,87.98,20.54,204.75,71.29,271.13c66.74,87.34,202.81,102.53,396.48,76.92c27.21-3.6,55.55-7.98,85-13.14
					c35.2-6.09,71.95-13.19,110.22-21.23c0,0,21.08,2.58,54.43,5.79c29.4,2.87,68.35,6.23,110.66,8.76
					c38.36,2.29,79.6,3.94,119.03,3.94c132.37,0,284.12-18.5,284.12-18.5c298.43,62.46,504.36,71.71,591.7-42.55
					C1930.5,2652.21,1963.55,2535.43,1951.03,2447.46z"/>
			</g>
			<g>
				<g>
					
						<ellipse transform="matrix(0.9662 -0.2578 0.2578 0.9662 -662.9333 147.4333)" class="st7" cx="230.85" cy="2602.15" rx="54.91" ry="69.71"/>
				</g>
				<g>
					
						<ellipse transform="matrix(0.9662 -0.2578 0.2578 0.9662 -629.6938 131.6781)" class="st7" cx="187.36" cy="2467.44" rx="33.7" ry="42.79"/>
				</g>
				<g>
					
						<ellipse transform="matrix(0.7592 -0.6509 0.6509 0.7592 -1619.2667 693.1442)" class="st7" cx="127.11" cy="2534.92" rx="31.3" ry="39.73"/>
				</g>
				<g>
					
						<ellipse transform="matrix(0.0766 -0.9971 0.9971 0.0766 -2223.8254 2571.8538)" class="st7" cx="276.6" cy="2486.55" rx="42.79" ry="33.7"/>
				</g>
			</g>
			<g>
				<g>
					
						<ellipse transform="matrix(0.2578 -0.9662 0.9662 0.2578 -1195.2466 3648.3833)" class="st7" cx="1777.02" cy="2602.15" rx="69.71" ry="54.91"/>
				</g>
				<g>
					
						<ellipse transform="matrix(0.2578 -0.9662 0.9662 0.2578 -1032.8157 3590.4011)" class="st7" cx="1820.51" cy="2467.44" rx="42.79" ry="33.7"/>
				</g>
				<g>
					
						<ellipse transform="matrix(0.6509 -0.7592 0.7592 0.6509 -1267.8578 2312.9182)" class="st7" cx="1880.76" cy="2534.92" rx="39.73" ry="31.3"/>
				</g>
				<g>
					
						<ellipse transform="matrix(0.9971 -0.0766 0.0766 0.9971 -185.395 139.9306)" class="st7" cx="1731.27" cy="2486.55" rx="33.7" ry="42.79"/>
				</g>
			</g>
			<g class="st4">
				<path class="st5" d="M1510.82,1967.84c-475.83,186.89-888.66,30.09-1003.31-21.96c10.52-21.47,20.35-39.92,29.06-55.35
					c22.49-39.77,37.49-59.49,37.49-59.49h859.75C1433.81,1831.04,1468.13,1876.22,1510.82,1967.84z"/>
			</g>
			<g>
				<g>
					<path class="st5" d="M1716.41,2384.76l-2.16,2.02c-0.8,0.72-1.65,1.62-2.48,2.45c-1.67,1.65-3.35,3.38-5.01,5.17
						c-1.68,1.73-3.33,3.53-4.91,5.42c-1.61,1.86-3.3,3.62-4.85,5.55c-6.21,7.68-12.42,15.45-17.86,23.83
						c-2.81,4.12-5.66,8.22-8.14,12.58c-2.55,4.3-5.28,8.51-7.52,13.01c-2.32,4.45-4.89,8.78-7.03,13.33l-6.32,13.73
						c-2.12,4.58-3.77,9.37-5.7,14.05l-2.8,7.07l-2.3,7.25c-1.48,4.86-3.19,9.66-4.77,14.52c-1.27,4.94-2.5,9.9-3.94,14.83
						l-2.1,7.43l-1.67,7.54c-1.17,5.03-2.2,10.1-3.52,15.17c-2.19,10.18-3.79,20.52-6.4,30.96l-0.13,0.52
						c-0.83,3.32-4.2,5.35-7.53,4.51c-2.53-0.63-4.3-2.74-4.64-5.17c-0.75-5.42-1.38-10.88-1.86-16.36
						c-0.41-5.48-1.17-11.01-1.01-16.5c-0.03-5.51,0.22-11.02,0.33-16.57c0.08-2.77,0.11-5.55,0.37-8.31l0.98-8.26
						c0.61-5.52,1.42-11.02,2.2-16.54c1.12-5.45,2.27-10.91,3.55-16.35l1.91-8.17l2.44-8.03c1.69-5.34,3.13-10.77,5.06-16.05
						c7.59-21.15,17.61-41.52,29.89-60.58c6.11-9.54,12.99-18.65,20.37-27.37c3.8-4.31,7.54-8.61,11.76-12.65
						c2.04-2.05,4.11-4.1,6.38-6.05c1.12-0.99,2.17-1.97,3.4-2.97c1.23-1.01,2.25-1.9,3.91-3.18c7.82-6.01,19.04-4.55,25.05,3.27
						c5.64,7.34,4.7,17.66-1.89,23.87L1716.41,2384.76z"/>
				</g>
				<g>
					<path class="st5" d="M1621.87,2349.85c-9.83-4.34-19.6-9.61-29.23-15.05c-9.64-5.49-19.2-11.22-28.47-18.26l-0.03-0.02
						c-2.37-1.8-2.83-5.18-1.03-7.54c1-1.32,2.52-2.05,4.06-2.12c11.75-0.49,23.1,0.68,34.27,2.35c11.19,1.72,22.16,3.82,32.97,7.14
						c9.46,2.91,14.78,12.94,11.87,22.4c-2.91,9.46-12.94,14.78-22.4,11.87c-0.65-0.2-1.27-0.43-1.88-0.69L1621.87,2349.85z"/>
				</g>
				<g>
					<path class="st5" d="M313.66,2356.62c1.66,1.27,2.68,2.16,3.91,3.18c1.23,1,2.28,1.98,3.4,2.97c2.26,1.95,4.34,4,6.38,6.05
						c4.22,4.04,7.96,8.34,11.76,12.65c7.39,8.72,14.26,17.83,20.37,27.37c12.28,19.06,22.31,39.43,29.89,60.58
						c1.93,5.27,3.37,10.71,5.06,16.05l2.44,8.03l1.91,8.17c1.29,5.43,2.43,10.9,3.55,16.35c0.78,5.52,1.59,11.02,2.2,16.54
						l0.98,8.26c0.25,2.76,0.29,5.54,0.37,8.31c0.11,5.55,0.36,11.06,0.33,16.57c0.16,5.5-0.6,11.03-1.01,16.5
						c-0.48,5.48-1.11,10.94-1.86,16.36c-0.47,3.4-3.6,5.77-7,5.3c-2.58-0.36-4.57-2.25-5.17-4.64l-0.13-0.53
						c-2.61-10.44-4.22-20.78-6.4-30.96c-1.31-5.07-2.35-10.14-3.52-15.17l-1.67-7.54l-2.1-7.43c-1.44-4.94-2.68-9.89-3.94-14.83
						c-1.58-4.86-3.29-9.67-4.77-14.52l-2.3-7.25l-2.8-7.07c-1.92-4.68-3.58-9.47-5.7-14.05l-6.32-13.73
						c-2.14-4.55-4.71-8.88-7.03-13.33c-2.24-4.5-4.96-8.7-7.52-13.01c-2.48-4.36-5.33-8.46-8.14-12.58
						c-5.43-8.37-11.65-16.15-17.86-23.83c-1.55-1.93-3.24-3.69-4.85-5.55c-1.59-1.89-3.23-3.69-4.91-5.42
						c-1.66-1.79-3.34-3.52-5.01-5.17c-0.83-0.83-1.68-1.72-2.48-2.45l-2.16-2.02l-1.01-0.94c-7.2-6.75-7.57-18.05-0.83-25.25
						C296.05,2351.81,306.45,2351.12,313.66,2356.62z"/>
				</g>
				<g>
					<path class="st5" d="M373.55,2316.34c10.81-3.32,21.78-5.43,32.97-7.14c11.17-1.67,22.52-2.84,34.27-2.35
						c2.97,0.12,5.28,2.63,5.15,5.61c-0.07,1.66-0.88,3.11-2.1,4.05l-0.05,0.04c-9.27,7.03-18.83,12.76-28.47,18.26
						c-9.62,5.44-19.4,10.72-29.23,15.05l-0.05,0.02c-9.06,4-19.64-0.1-23.63-9.16c-4-9.06,0.11-19.64,9.16-23.63
						C372.2,2316.8,372.92,2316.54,373.55,2316.34z"/>
				</g>
			</g>
			<g>
				<path class="st5" d="M376.99,2824.54c-114.78,0-209.38-24.83-263.08-95.06c-58.44-76.44-90.38-206.99-72.71-297.23
					c9.22-47.07,31.34-82.09,63.98-101.27c79.79-46.89,160.08-12.29,199.47,18.15c22.76-12.14,46.93-23.17,59.46-28.72
					c69.75-331.75,190.59-493.43,195.74-500.2c3.38-4.45,8.65-7.06,14.24-7.06h859.72c5.59,0,10.86,2.61,14.24,7.06
					c5.15,6.78,125.99,168.46,195.74,500.2c12.53,5.56,36.69,16.58,59.46,28.72c39.39-30.45,119.68-65.05,199.47-18.15
					c32.64,19.18,54.76,54.2,63.98,101.27c17.67,90.23-14.27,220.79-72.71,297.23c-102,133.41-351.62,103-606.73,49.76
					c-21.97,2.57-161.53,18.29-283.3,18.29s-261.34-15.72-283.3-18.29C599.82,2804.44,480.24,2824.54,376.99,2824.54z
					 M188.67,2343.48c-20.4,0-42.6,4.96-65.37,18.34c-23.89,14.04-39.7,40.05-46.99,77.3c-15.67,80.01,13.95,200.51,66.03,268.62
					c73.02,95.5,239.27,105.9,573.84,35.87c1.91-0.4,3.88-0.48,5.83-0.25c1.51,0.19,152.23,18.38,281.93,18.38
					c129.71,0,280.42-18.2,281.93-18.38c1.94-0.23,3.92-0.15,5.83,0.25c334.57,70.02,500.82,59.64,573.84-35.87
					c52.07-68.11,81.69-188.61,66.02-268.62c-7.29-37.25-23.11-63.26-46.99-77.3c-85.98-50.53-163.84,19.06-167.11,22.05
					c-5.71,5.21-14.16,6.19-20.89,2.4c-32.55-18.36-75.03-36.54-75.45-36.72c-5.4-2.3-9.32-7.11-10.5-12.85
					c-59.81-291.1-162.33-453.11-186.07-487.78H583.33c-23.73,34.65-126.25,196.66-186.07,487.78c-1.18,5.75-5.11,10.55-10.5,12.85
					c-0.42,0.18-42.9,18.36-75.45,36.72c-6.77,3.82-15.21,2.83-20.92-2.43C288,2381.67,245.28,2343.48,188.67,2343.48z"/>
			</g>
		</g>
		<g>
			<g>
				<path class="st2" d="M854.23,2805.1c-106.42,61.29-318.14,55.5-335.48-24.29c-2.68-12.37-1.17-24.49,3.07-35.98
					c5.6-15.04,15.82-29.06,27.31-41.19c25.41-27.02,56.96-44.89,56.96-44.89c-3.55-11.25-6.96-22.54-10.22-33.88
					c-64.8-222.43-85.24-450.27-85.24-450.27c110.75-9.06,247.99,53.31,330.27,97.9c36.95,20.01,62.85,36.46,70.2,41.23
					c1.41,0.93,2.14,1.41,2.14,1.41c0.83,8.13,1.8,17.23,2.78,27.07c0.29,1.95,0.49,3.94,0.63,5.94c0.29,3.46,0.63,7.11,1.07,10.86
					c1.27,12.8,2.58,26.63,3.8,41.19C933.64,2542.11,940.45,2755.39,854.23,2805.1z"/>
			</g>
			<g>
				<path class="st3" d="M854.23,2805.1c-106.42,61.29-318.14,55.5-335.48-24.29c-14.07-64.6,87.34-122.05,87.34-122.05
					c-3.55-11.25-6.96-22.54-10.22-33.88c32.67,66.11,163.82,37.63,243.32,2.04c87.92-39.34,82.32-226.72,82.32-226.72
					C933.64,2542.11,940.45,2755.39,854.23,2805.1z"/>
			</g>
			<g class="st4">
				<path class="st5" d="M921.51,2400.2c-1.22-14.56-2.53-28.38-3.8-41.19c-0.44-3.75-0.78-7.4-1.07-10.86
					c-0.15-2-0.34-3.99-0.63-5.94c-0.34-3.5-0.78-6.96-1.31-10.32c-0.97-6.28-2.19-12.32-3.6-18.16c-0.92-3.99-2-7.84-3.16-11.64
					c-9.06-19.86-22.39-38.51-36.32-54.62c-11.34-13.1-23.76-25.17-37.05-36.22c2.34,21.13,4.48,41.58,6.33,61.24
					c6.43,68.11,10.03,127.7,10.95,179.69c3.31,185.34-26.63,274.91-77.6,314.74c-25.07,19.52-55.21,27.12-88.94,28.14
					c-32.28,0.97-56.91-4.28-75.7-12.71c-56.42-25.17-60.46-78.72-60.46-78.72l-27.31,41.19c-4.24,11.49-5.74,23.61-3.07,35.98
					c1.12,5.21,3.12,10.13,5.84,14.7c38.75,65.58,230.17,66.89,329.63,9.59c11.93-6.86,22.05-16.89,30.67-29.4
					C938.46,2697.75,931.98,2522.49,921.51,2400.2z"/>
			</g>
			<g>
				<g>
					<path class="st5" d="M627.74,2751.03c-2.75,7.24-4.78,14.88-5.71,22.13c-1.08,7.27-1.09,14.39-0.7,21.33
						c0.76,7,1.94,13.78,3.82,20.54c0.8,3.37,2.14,6.73,3.04,10.09c1.2,3.35,2.53,6.69,3.52,10.13l0.52,1.83
						c2.71,9.47-2.77,19.35-12.24,22.07c-9.02,2.58-18.43-2.32-21.65-10.97c-1.61-4.37-3.1-8.78-4.32-13.28
						c-0.53-2.3-0.94-4.64-1.4-6.95c-0.46-2.31-0.92-4.61-1.03-7.03l-0.57-7.13c-0.18-2.36,0.06-4.82,0.08-7.2
						c-0.05-4.77,0.85-9.6,1.53-14.31c1.85-9.46,5.31-18.58,10.25-26.64c5.09-8.04,11.26-15,19.72-19.87
						c1.8-1.03,4.1-0.42,5.13,1.38c0.58,1.01,0.64,2.18,0.26,3.19L627.74,2751.03z"/>
				</g>
				<g>
					<path class="st5" d="M761.93,2748.71c-2.75,7.24-4.78,14.88-5.71,22.13c-1.08,7.27-1.09,14.39-0.7,21.33
						c0.76,7,1.94,13.78,3.82,20.54c0.8,3.37,2.14,6.73,3.04,10.09c1.2,3.35,2.53,6.69,3.52,10.13l0.52,1.83
						c2.71,9.47-2.77,19.35-12.24,22.07c-9.02,2.58-18.43-2.32-21.65-10.97c-1.61-4.37-3.1-8.78-4.32-13.28
						c-0.53-2.3-0.94-4.64-1.4-6.95c-0.46-2.31-0.92-4.61-1.03-7.03l-0.57-7.13c-0.18-2.36,0.06-4.82,0.08-7.2
						c-0.05-4.77,0.85-9.6,1.53-14.31c1.85-9.46,5.31-18.58,10.25-26.64c5.09-8.04,11.26-15,19.72-19.87
						c1.8-1.03,4.1-0.42,5.13,1.38c0.58,1.01,0.64,2.18,0.26,3.19L761.93,2748.71z"/>
				</g>
			</g>
			<g>
				<path class="st5" d="M518.39,2173.91c8.12,40.26,15.56,80.7,23.14,120.96c7.58,40.29,15.03,80.55,23.46,120.59
					c8.14,40.1,17.27,79.95,26.94,119.61c9.41,39.75,20.31,79.03,31.22,118.31l0.32,1.15c2.2,7.93-1.56,16.1-8.57,19.76l-0.01,0
					c-3.78,2.28-8.29,5.24-12.37,8.08c-4.16,2.9-8.25,5.91-12.25,9.02c-7.98,6.23-15.56,12.88-22.56,19.83
					c-13.94,13.8-25.53,29.75-29.62,45.29c-1.86,7.62-2.1,15.28,0.03,21.83c1.81,6.19,5.84,12.02,11.93,17.32
					c12.27,10.64,30.83,17.99,49.87,22.75c19.27,4.71,39.61,7.2,60.11,7.92c20.51,0.8,41.22,0.01,61.72-2.33
					c40.88-4.61,81.76-14.77,116.81-32.97c2.09-1.16,4.49-2.3,6.34-3.47l5.1-3.43c1.8-0.97,3.25-2.61,4.86-3.96
					c1.53-1.49,3.31-2.59,4.68-4.36c2.87-3.33,5.94-6.43,8.42-10.36c1.28-1.91,2.73-3.62,3.89-5.67l3.51-6.13
					c9.25-16.56,15.57-35.91,20.31-55.77c9.43-39.93,12.95-82.3,14.28-124.63c1.38-42.43-0.27-85.16-2.12-127.95
					c-1.59-42.83-3.77-85.77-3.3-129.28c0.05-4.85,4.02-8.73,8.87-8.68c4.16,0.04,7.61,2.97,8.47,6.86l0.01,0.04
					c9.46,42.4,15.93,85.43,19.98,128.81c3.8,43.4,5.46,87.08,4.85,131.03c-0.85,43.92-3.51,88.23-13.54,132.57
					c-5.13,22.11-11.96,44.37-23.56,65.72l-4.5,7.95c-1.5,2.65-3.46,5.16-5.18,7.74c-3.33,5.22-7.69,10-11.91,14.81
					c-2,2.47-4.71,4.51-7.07,6.76c-2.49,2.16-4.76,4.5-7.64,6.29l-8.32,5.64c-2.72,1.7-5.2,2.91-7.82,4.38
					c-20.7,11.29-42.48,18.85-64.39,24.97c-21.96,6.02-44.24,9.93-66.65,12.46c-22.41,2.52-44.98,3.36-67.63,2.45
					c-22.64-0.86-45.4-3.58-68.1-9.15c-22.53-5.88-45.79-13.93-66.26-31.88c-10.04-8.91-19.12-21.32-23.11-36
					c-4.13-14.21-3.24-28.92,0.26-42.13c3.71-13.11,9.8-24.69,16.86-34.77c7.08-10.12,15.04-19.1,23.48-27.24
					c8.4-8.2,17.36-15.5,26.54-22.37c4.61-3.41,9.3-6.69,14.07-9.85c4.87-3.21,9.44-6.1,14.99-9.26l0.02-0.01l-8.25,20.92
					c-3.2-9.89-6.48-19.77-9.53-29.72l-4.64-14.9l-4.29-14.99c-2.84-10-5.78-19.97-8.44-30.02l-7.65-30.21
					c-2.59-10.06-4.83-20.2-7.11-30.32c-2.23-10.13-4.7-20.22-6.73-30.4c-4.1-20.34-8.24-40.67-11.83-61.08
					c-7.15-40.84-13.69-81.77-18.24-122.96c-4.52-41.21-7.71-82.47-7.66-124.19c0.01-4.31,3.51-7.8,7.82-7.8
					c3.78,0,6.93,2.69,7.65,6.26L518.39,2173.91z"/>
			</g>
		</g>
		<g>
			<g>
				<path class="st2" d="M1153.64,2805.1c106.42,61.29,318.15,55.5,335.48-24.29c2.68-12.37,1.17-24.49-3.07-35.98
					c-5.6-15.04-15.82-29.06-27.31-41.19c-25.41-27.02-56.96-44.89-56.96-44.89c3.55-11.25,6.96-22.54,10.22-33.88
					c64.8-222.43,85.24-450.27,85.24-450.27c-110.75-9.06-247.99,53.31-330.27,97.9c-36.95,20.01-62.85,36.46-70.2,41.23
					c-1.41,0.93-2.14,1.41-2.14,1.41c-0.83,8.13-1.8,17.23-2.78,27.07c-0.29,1.95-0.49,3.94-0.63,5.94
					c-0.29,3.46-0.63,7.11-1.07,10.86c-1.27,12.8-2.58,26.63-3.8,41.19C1074.23,2542.11,1067.42,2755.39,1153.64,2805.1z"/>
			</g>
			<g>
				<path class="st3" d="M1153.64,2805.1c106.42,61.29,318.15,55.5,335.48-24.29c14.07-64.6-87.34-122.05-87.34-122.05
					c3.55-11.25,6.96-22.54,10.22-33.88c-32.67,66.11-163.82,37.63-243.32,2.04c-87.92-39.34-82.32-226.72-82.32-226.72
					C1074.23,2542.11,1067.42,2755.39,1153.64,2805.1z"/>
			</g>
			<g class="st4">
				<path class="st5" d="M1086.36,2400.2c1.22-14.56,2.53-28.38,3.8-41.19c0.44-3.75,0.78-7.4,1.07-10.86
					c0.15-2,0.34-3.99,0.63-5.94c0.34-3.5,0.78-6.96,1.31-10.32c0.97-6.28,2.19-12.32,3.6-18.16c0.93-3.99,2-7.84,3.16-11.64
					c9.06-19.86,22.39-38.51,36.32-54.62c11.34-13.1,23.76-25.17,37.05-36.22c-2.34,21.13-4.48,41.58-6.33,61.24
					c-6.43,68.11-10.03,127.7-10.95,179.69c-3.31,185.34,26.63,274.91,77.6,314.74c25.07,19.52,55.21,27.12,88.94,28.14
					c32.28,0.97,56.91-4.28,75.7-12.71c56.42-25.17,60.46-78.72,60.46-78.72l27.31,41.19c4.24,11.49,5.74,23.61,3.07,35.98
					c-1.12,5.21-3.12,10.13-5.84,14.7c-38.75,65.58-230.17,66.89-329.63,9.59c-11.93-6.86-22.05-16.89-30.67-29.4
					C1069.41,2697.75,1075.89,2522.49,1086.36,2400.2z"/>
			</g>
			<g>
				<g>
					<path class="st5" d="M1385.27,2745.76c8.46,4.86,14.63,11.83,19.72,19.87c4.93,8.07,8.39,17.18,10.25,26.64
						c0.69,4.71,1.59,9.54,1.53,14.31c0.03,2.38,0.26,4.84,0.08,7.2l-0.57,7.13c-0.11,2.42-0.57,4.72-1.03,7.03
						c-0.46,2.31-0.86,4.65-1.4,6.95c-1.22,4.51-2.71,8.92-4.32,13.28c-3.41,9.24-13.68,13.97-22.92,10.56
						c-8.8-3.25-13.51-12.71-10.99-21.59l0.54-1.89c0.99-3.44,2.32-6.78,3.52-10.13c0.9-3.36,2.24-6.72,3.04-10.09
						c1.88-6.76,3.06-13.55,3.82-20.54c0.39-6.94,0.38-14.06-0.7-21.33c-0.93-7.24-2.96-14.89-5.71-22.13l-0.25-0.67
						c-0.74-1.94,0.24-4.11,2.18-4.85C1383.15,2745.09,1384.33,2745.23,1385.27,2745.76z"/>
				</g>
				<g>
					<path class="st5" d="M1251.07,2743.45c8.46,4.86,14.63,11.83,19.72,19.87c4.93,8.07,8.39,17.18,10.25,26.64
						c0.69,4.71,1.59,9.54,1.53,14.31c0.03,2.38,0.26,4.84,0.08,7.2l-0.57,7.13c-0.11,2.42-0.57,4.72-1.03,7.03
						c-0.46,2.31-0.86,4.65-1.4,6.95c-1.22,4.51-2.71,8.92-4.32,13.28c-3.41,9.24-13.68,13.97-22.92,10.56
						c-8.8-3.25-13.51-12.71-10.99-21.59l0.54-1.89c0.99-3.44,2.32-6.78,3.52-10.13c0.9-3.36,2.24-6.72,3.04-10.09
						c1.88-6.76,3.06-13.55,3.82-20.54c0.39-6.94,0.38-14.06-0.7-21.33c-0.93-7.24-2.96-14.89-5.71-22.13l-0.25-0.67
						c-0.74-1.94,0.24-4.11,2.18-4.85C1248.95,2742.78,1250.13,2742.92,1251.07,2743.45z"/>
				</g>
			</g>
			<g>
				<path class="st5" d="M1504.97,2175.3c0.05,41.72-3.14,82.99-7.66,124.19c-4.55,41.19-11.09,82.12-18.24,122.96
					c-3.59,20.42-7.73,40.74-11.83,61.08c-2.03,10.17-4.5,20.26-6.73,30.4c-2.28,10.12-4.51,20.26-7.11,30.32l-7.65,30.21
					c-2.66,10.05-5.6,20.02-8.44,30.02l-4.29,14.99l-4.64,14.9c-3.05,9.95-6.33,19.82-9.53,29.72l-8.25-20.92l0.02,0.01
					c5.55,3.16,10.12,6.05,14.99,9.26c4.78,3.16,9.47,6.44,14.07,9.85c9.19,6.87,18.15,14.17,26.54,22.37
					c8.43,8.14,16.39,17.11,23.48,27.24c7.07,10.09,13.15,21.66,16.86,34.77c3.5,13.21,4.39,27.92,0.26,42.13
					c-3.99,14.68-13.07,27.08-23.11,36c-20.47,17.95-43.73,26-66.26,31.88c-22.7,5.57-45.45,8.3-68.1,9.15
					c-22.65,0.91-45.22,0.06-67.63-2.45c-22.4-2.53-44.69-6.44-66.65-12.46c-21.91-6.11-43.69-13.68-64.39-24.97
					c-2.62-1.47-5.1-2.68-7.82-4.38l-8.32-5.64c-2.88-1.79-5.15-4.13-7.64-6.29c-2.35-2.25-5.07-4.29-7.07-6.76
					c-4.22-4.81-8.58-9.59-11.91-14.81c-1.73-2.58-3.68-5.09-5.18-7.74l-4.5-7.95c-11.6-21.35-18.43-43.61-23.56-65.72
					c-10.04-44.34-12.7-88.65-13.54-132.57c-0.61-43.94,1.05-87.63,4.85-131.03c4.05-43.37,10.52-86.41,19.98-128.81l0.01-0.03
					c1.05-4.73,5.75-7.71,10.48-6.65c4.06,0.9,6.82,4.49,6.86,8.47c0.47,43.51-1.71,86.45-3.3,129.28
					c-1.84,42.79-3.49,85.51-2.12,127.95c1.33,42.33,4.85,84.7,14.28,124.63c4.73,19.86,11.06,39.21,20.31,55.77l3.51,6.13
					c1.16,2.05,2.62,3.76,3.89,5.67c2.48,3.93,5.55,7.03,8.42,10.36c1.37,1.77,3.15,2.87,4.68,4.36c1.61,1.35,3.06,3,4.86,3.96
					l5.1,3.43c1.85,1.17,4.25,2.31,6.34,3.47c35.05,18.2,75.93,28.36,116.81,32.97c20.51,2.34,41.22,3.13,61.72,2.33
					c20.5-0.73,40.85-3.22,60.11-7.92c19.04-4.76,37.6-12.11,49.87-22.75c6.09-5.3,10.12-11.13,11.93-17.32
					c2.13-6.55,1.89-14.21,0.03-21.83c-4.08-15.54-15.68-31.49-29.62-45.29c-6.99-6.95-14.57-13.6-22.56-19.83
					c-4-3.11-8.09-6.12-12.25-9.02c-4.07-2.84-8.58-5.81-12.37-8.08l-0.01,0c-7.29-3.81-10.7-12.14-8.58-19.76l0.33-1.16
					c10.91-39.29,21.82-78.56,31.22-118.31c9.67-39.67,18.8-79.52,26.94-119.61c8.44-40.04,15.89-80.3,23.46-120.59
					c7.58-40.27,15.01-80.71,23.14-120.96l0.03-0.15c0.85-4.23,4.97-6.96,9.2-6.11C1502.41,2168.4,1504.97,2171.66,1504.97,2175.3z"
					/>
			</g>
		</g>
		<g>
			<g>
				<path class="st8" d="M1797.85,1246.6c0,0,9.99,60.94,5.09,119.7c0,0,49.2-36.16,75.01,4.82
					c24.75,39.3-25.32,142.14-71.12,169.35c0,0,90.47-8.04,51.86,94.9c-35.67,95.08-196.48,153.15-196.48,153.15
					s-206.2,196.58-565.29,192.06c0,0-55.81,4.56-130.34-0.22l-0.05,0c-74.48-4.78-129.24-16.45-129.24-16.45
					c-356.73-41.45-536.09-262.78-536.09-262.78s-152.06-78.16-175.28-177.02c-11.61-49.38,1.05-71.84,18.03-81.68
					c19.81-11.46,45.55-5.81,45.55-5.81c-41.94-32.84-78.45-141.24-48.88-177.05c30.84-37.34,75.01,4.82,75.01,4.82
					c2.66-58.91,20.36-118.07,20.36-118.07S92.26,1020.53,94.52,641.09c0.96-155.46,30.32-286.85,65.83-389.21c0,0,0-0.05,0.06-0.14
					c27.78-80.17,59.3-142.54,83.88-184.87c27.38-47.27,87.62-63.84,135.27-37.17C580.16,142,731.91,563.18,731.91,563.18
					c75.99-20.34,157.73-26.8,220.51-28.23c61.55-1.36,104.89,2.15,106.78,2.32c0.05,0,0.05,0,0.05,0s175.66,7.77,321.34,67.56
					c0,0,204.37-398.32,417.69-484.04c50.68-20.36,108.3,3.78,129.41,54.17c43.16,102.73,108.86,313.4,75.08,588.66
					C1956.49,1140.24,1797.85,1246.6,1797.85,1246.6z"/>
			</g>
			<g>
				
					<ellipse transform="matrix(0.4161 -0.9093 0.9093 0.4161 -417.5159 1193.3833)" class="st3" cx="720.51" cy="921.8" rx="59.58" ry="80.45"/>
			</g>
			<g>
				
					<ellipse transform="matrix(0.9551 -0.2964 0.2964 0.9551 -224.6459 442.1974)" class="st3" cx="1346.03" cy="961.97" rx="80.45" ry="59.58"/>
			</g>
			<g>
				<path class="st9" d="M1680.07,1585.64c-68.56-146.46-215.32-119.03-326.94-140.98c-111.62-21.95-261.03-121.09-229.53-494.65
					c19.96-237.07,72.47-330.59,86.28-393.76c-60.87-9.23-148.78-18.91-150.68-18.98c-1.89-0.17-90.31-1.81-151.87-0.45
					c5.62,64.41,45.74,163.88,35.21,401.56c-16.54,374.52-177.4,453.74-290.91,461.23c-113.51,7.49-255.56-38.48-342.29,98
					c-60.06,94.52-8.14,203.49-8.14,203.49s179.36,221.34,536.09,262.78c0,0,54.77,11.66,129.24,16.45s130.29,0.22,130.29,0.22
					c359.1,4.52,565.29-192.06,565.29-192.06S1727.55,1687.07,1680.07,1585.64z"/>
			</g>
			<g class="st4">
				<path class="st5" d="M1851.26,1552.04c-0.61,8.74-10.8,105.12-153.85,115.25c0,0-227.9,244.36-724.37,212.48
					S281.8,1576.39,281.8,1576.39c-140.58-28.35-138.36-125.23-137.84-133.98c-16.97,9.84-29.64,32.29-18.03,81.68
					c23.21,98.86,175.28,177.02,175.28,177.02s179.36,221.34,536.09,262.78c0,0,54.77,11.66,129.24,16.45l0.05,0l0.05,0
					c74.48,4.78,130.29,0.22,130.29,0.22c359.1,4.52,565.29-192.06,565.29-192.06s160.81-58.07,196.48-153.15
					C1876.53,1587.86,1866.84,1563.97,1851.26,1552.04z"/>
			</g>
			<g class="st4">
				<path class="st1" d="M1003.27,1410.63l-82.74-5.31c0,0,6.48,88.56-50.05,88.85c-33.58,0.17-51.85-27.99-61.14-50.87
					c-5.65-13.92-24.88-15.78-32.83-3.03c-9.28,14.89-15.98,35.96-8.31,62.55c16.36,56.69,77,90.15,146.87,63.33
					S1001.75,1482.36,1003.27,1410.63z"/>
			</g>
			<g class="st4">
				<path class="st1" d="M1003.27,1410.63l82.74,5.31c0,0-17.76,87.01,38.27,94.52c33.29,4.46,55-21.12,67.15-42.63
					c7.39-13.08,26.7-12.47,32.95,1.19c7.3,15.95,11.25,37.71,0.24,63.1c-23.47,54.13-87.9,79.56-153.77,44.03
					C1004.97,1540.62,995.6,1481.96,1003.27,1410.63z"/>
			</g>
			<g class="st6">
				<path class="st3" d="M1927.59,174.96c-21.11-50.38-78.73-74.52-129.41-54.17c-213.32,85.72-417.69,484.04-417.69,484.04
					c-72.77-29.89-153.01-46.75-215.09-56.2c-60.87-9.23-104.31-11.28-106.2-11.36c-1.89-0.17-45.23-3.69-106.78-2.32
					c-62.78,1.43-144.52,7.89-220.51,28.23c0,0-151.74-421.18-352.35-533.49C331.9,3.02,271.66,19.59,244.28,66.86
					c-24.57,42.33-56.09,104.7-83.88,184.87c2.62-5.78,87.77-191.64,166.85-184.03c77.04,7.47,247.78,189.93,353.25,516.6
					c7.58,23.49,31.66,37.45,55.83,32.42c53.84-11.21,159.28-25.67,318.76-15.43c159.47,10.24,262.2,38.06,314.16,56.07
					c23.32,8.08,48.99-2.69,59.51-25.01c146.39-310.5,339.06-469.62,416.42-467.18c79.4,2.56,140.09,197.79,141.94,203.86
					C1969.83,285.97,1946.55,220.08,1927.59,174.96z"/>
			</g>
			<g>
				<g>
					
						<ellipse transform="matrix(0.1021 -0.9948 0.9948 0.1021 -613.951 1720.9811)" class="st5" cx="646.39" cy="1200.6" rx="158.52" ry="116.25"/>
				</g>
				<g>
					
						<ellipse transform="matrix(0.1021 -0.9948 0.9948 0.1021 -555.0753 1736.3199)" class="st9" cx="684.32" cy="1175.65" rx="59.32" ry="39.89"/>
				</g>
				<g class="st10">
					
						<ellipse transform="matrix(0.9844 -0.1757 0.1757 0.9844 -212.3094 122.8592)" class="st9" cx="587.67" cy="1260.4" rx="19.97" ry="35.76"/>
				</g>
				<g>
					<path class="st5" d="M1519.03,1206.18c-11.07,2.03-22.28,4.25-32.8,6.51c-10.61,2.61-20.86,5-30.84,8.11
						c-19.91,5.97-39.07,12.86-56.68,23.1c-4.47,2.37-8.6,5.43-12.92,8.06c-2.14,1.36-4.34,2.61-6.44,4.03l-6.05,4.7
						c-4.04,3.13-8.24,5.99-12.17,9.27c-3.83,3.44-7.59,6.95-11.51,10.3c-1.93,1.7-3.95,3.31-5.83,5.09l-5.35,5.7
						c-3.53,3.84-7.29,7.47-10.99,11.2c-6.96,7.89-13.65,16.18-21.07,24.01l-30.11-36.23l0,0l4.01-1.71c1.22-0.51,2.4-0.99,3.52-1.4
						c2.28-0.88,4.62-1.7,6.89-2.38c4.56-1.53,9.15-2.68,13.75-3.77c4.59-1.14,9.24-1.88,13.87-2.71c4.67-0.57,9.33-1.23,14-1.68
						c18.73-1.57,37.77-0.33,56.18,3.61l6.89,1.48c2.29,0.53,4.53,1.32,6.78,1.97c4.48,1.44,9.02,2.59,13.39,4.29
						c8.66,3.66,17.27,7.25,25.07,12.41c16.06,9.28,29.62,22.19,40.44,36.48c2.54,3.36,1.88,8.14-1.47,10.68
						c-2.1,1.59-4.75,1.93-7.06,1.14l-0.83-0.29c-4.06-1.41-7.96-2.9-11.74-4.46c-3.79-1.53-7.37-3.29-11.25-4.43
						c-3.83-1.22-7.54-2.54-11.18-3.91c-1.79-0.74-3.68-1.26-5.59-1.69l-5.58-1.57c-7.28-2.41-14.88-3.48-22.12-5.25
						c-3.69-0.67-7.43-1.1-11.11-1.67c-1.85-0.24-3.66-0.62-5.53-0.75l-5.6-0.31c-14.82-1.05-29.7-0.58-44.4,1.59l-10.98,1.73
						c-3.6,0.85-7.27,1.45-10.85,2.29c-3.58,0.86-7.15,1.72-10.63,2.68c-1.79,0.42-3.41,1.02-5.12,1.46
						c-0.88,0.23-1.67,0.47-2.42,0.71l-1.87,0.56l0,0c-10.37,7.49-24.84,5.16-32.33-5.21c-5.58-7.72-5.71-17.72-1.13-25.41
						l3.36-5.61c3.17-5.31,6.44-10.58,9.86-15.77c3.47-5.17,6.6-10.56,10.61-15.39c4.03-4.81,7.99-9.72,12.18-14.42l6.24-7.11
						c2.21-2.27,4.59-4.39,6.89-6.59c4.63-4.37,9.41-8.58,14.12-12.86c4.94-4.04,10.32-7.62,15.48-11.41l7.88-5.51
						c2.74-1.69,5.59-3.21,8.39-4.81c5.7-3.03,11.19-6.38,17.07-9.04l17.88-7.4c6.02-2.28,12.33-3.83,18.46-5.71
						c6.09-2.05,12.55-2.82,18.82-4.07c6.26-1.33,12.72-1.58,19.09-1.99c25.53-1.07,51.1,3.11,73.75,16.56
						c3.25,1.93,4.32,6.12,2.39,9.37c-1.04,1.76-2.75,2.88-4.62,3.23L1519.03,1206.18z"/>
				</g>
				<g>
					<path class="st5" d="M1009.48,1312.39c-59.2-3.8-97.05,4.13-119.23,12.13c-17.48,6.3-26.19,25.98-19.07,43.14
						c28.41,68.44,129.48,82.18,129.48,82.18s101.99-0.7,138.92-64.95c9.26-16.11,3.14-36.74-13.4-45.23
						C1105.2,1328.9,1068.68,1316.2,1009.48,1312.39z"/>
				</g>
				<g>
					
						<ellipse transform="matrix(0.0641 -0.9979 0.9979 0.0641 -401.0211 2265.449)" class="st9" cx="1007.28" cy="1346.52" rx="12.73" ry="78.09"/>
				</g>
				<g>
					<path class="st5" d="M1021.13,1409.43c-0.42,16.6-1.31,33.4-1.99,49.8c-0.42,14.01,1.99,27.97,6.96,40.93
						c5.07,12.92,12.6,24.91,22.29,34.82c9.77,9.81,21.51,17.58,34.37,22.53l4.83,1.85l5,1.32c3.3,1.06,6.72,1.56,10.15,2.09
						c3.28,0.63,7.16,1.11,10.78,1.22l10.91,0.27c14.4-0.28,28.35-2.79,40.84-8.46c12.48-5.66,23.58-14.3,33.13-25.29
						c4.65-5.56,9.27-11.45,13.15-17.96c3.96-6.32,7.65-13.57,10.61-20l0.49-1.07c2.12-4.59,7.55-6.6,12.14-4.48
						c3.51,1.62,5.51,5.2,5.31,8.83c-0.56,9.85-2.55,18.34-5.37,27.21c-1.43,4.37-3.14,8.65-5.14,12.86
						c-1.75,4.33-4.29,8.28-6.64,12.36c-9.71,16.15-24.34,30.2-41.74,39.38c-17.45,9.25-36.87,13.1-55.61,14.18l-14.06,0.14
						c-4.7-0.04-9.12-0.37-14.05-1.11c-4.82-0.64-9.64-1.33-14.34-2.66l-7.09-1.79l-6.9-2.43c-18.32-6.65-35.25-17.3-48.9-31.16
						c-13.63-13.86-24.35-30.54-31.04-48.75c-6.82-18.15-9.62-37.8-8.16-57.04c1.31-16.84,2.66-33.26,4.34-49.89
						c0.99-9.84,9.77-17.01,19.61-16.02c9.37,0.95,16.31,8.95,16.1,18.2L1021.13,1409.43z"/>
				</g>
				<g>
					<path class="st5" d="M1021.13,1409.43c-0.46,16.71-1.22,33.17-2.08,50.04c-1.01,19.27-6.3,38.4-15.39,55.53
						c-8.96,17.21-21.73,32.37-37.02,44.38c-15.31,12-33.46,20.4-52.49,24.65l-7.15,1.53l-7.26,0.86c-4.83,0.72-9.7,0.79-14.56,0.81
						c-4.98,0.1-9.41-0.14-14.08-0.7l-13.93-1.94c-18.45-3.46-37.22-9.77-53.34-21.17c-16.08-11.33-28.79-27.14-36.36-44.39
						c-1.81-4.35-3.83-8.59-5.01-13.11c-1.44-4.42-2.59-8.89-3.45-13.41c-1.65-9.16-2.55-17.83-1.84-27.68
						c0.36-5.04,4.74-8.84,9.79-8.48c3.85,0.28,6.98,2.9,8.08,6.37l0.36,1.15c2.12,6.76,4.85,14.43,7.97,21.2
						c3.02,6.95,6.84,13.38,10.75,19.49c8.07,12.12,17.97,22.1,29.62,29.32c11.67,7.22,25.18,11.49,39.42,13.61l10.86,1.13
						c3.6,0.35,7.52,0.37,10.85,0.17c3.47-0.08,6.93-0.14,10.33-0.77l5.13-0.67l5.03-1.22c13.38-3.26,26.02-9.46,36.97-17.95
						c10.88-8.59,19.89-19.52,26.57-31.69c6.58-12.23,10.76-25.76,12.13-39.71c1.42-16.35,2.69-33.13,4.4-49.65l0-0.04
						c1.02-9.84,9.81-16.99,19.65-15.97C1014.43,1392.09,1021.36,1400.18,1021.13,1409.43z"/>
				</g>
				<g>
					<path class="st5" d="M1000.65,1449.85c-10.01,155.85,153,129.36,153,129.36s-30.08,159.65-170.97,150.6
						s-150.31-171.23-150.31-171.23S990.64,1605.7,1000.65,1449.85z"/>
				</g>
				<g>
					<path class="st11" d="M989.6,1621.86c-79.71-5.12-107.99,60.13-107.99,60.13c32.82,41.93,101.06,47.81,101.06,47.81
						s68.43,2.89,106.34-34.5C1089.01,1695.31,1069.31,1626.98,989.6,1621.86z"/>
				</g>
				<g>
					<path class="st5" d="M993.88,1748.18c-4.04,0-8.16-0.13-12.36-0.4c-124.02-7.96-163.56-126.56-167.13-188.16
						c-0.34-5.86,2.2-11.52,6.8-15.17c4.6-3.65,10.69-4.81,16.32-3.14c0.62,0.18,65.55,18.75,107.63-10.71
						c22.43-15.7,35.06-43.25,37.54-81.91c0.64-9.93,9.21-17.44,19.13-16.82c9.53,0.61,16.85,8.53,16.86,17.94
						c0,0.39-0.01,0.79-0.04,1.19c-2.48,38.65,6.52,67.6,26.76,86.04c37.97,34.6,104.74,24.48,105.41,24.38
						c5.77-0.92,11.67,1.04,15.76,5.24c4.08,4.2,5.88,10.12,4.8,15.88C1160.31,1641.12,1109.17,1748.17,993.88,1748.18z
						 M853.68,1581.2c8.3,41.85,36.51,124.61,130.14,130.62c93.96,6.04,132.41-72.46,145.86-112.9
						c-29.03,0.26-75.05-4.84-108.41-35.11c-10.81-9.81-19.39-21.38-25.73-34.66c-7.98,12.36-17.98,22.74-29.95,31.08
						C928.69,1585.97,882.29,1585.13,853.68,1581.2z"/>
				</g>
			</g>
			<g>
				<g>
					<path class="st12" d="M505.47,685.97c-1.45-0.92-66.13-42.1-112.13-16.32c-46.46,26.09-24.6,130.09-24.6,130.09
						c-123.81-22.05-76.09,130.49-74.59,135.17c0,0.05,0.05,0.05,0.04,0.1c0,0-5.12,52.41-45.47,50.99
						c-40.4-1.42-69.5-20.71-81.02-292.68c-11.51-272.02,72.23-463.83,87.55-465.48c15.32-1.6,40.05,32.72,40.05,32.72
						C396.42,388.46,503.82,681.37,505.47,685.97z"/>
				</g>
				<g class="st4">
					<path class="st5" d="M505.47,685.97c-1.45-0.92-66.13-42.1-112.13-16.32c-46.46,26.09-24.6,130.09-24.6,130.09
						c-123.81-22.05-76.09,130.49-74.59,135.17c-126.67-292.74,1.15-674.36,1.15-674.36C396.42,388.46,503.82,681.37,505.47,685.97z
						"/>
				</g>
				<g>
					<path class="st5" d="M263.06,222c2.18,0.83,3.37,1.46,4.88,2.15c1.52,0.68,2.81,1.4,4.12,2.16c2.64,1.49,5.27,3.02,7.63,4.7
						c2.39,1.67,4.9,3.31,7.19,5.08l6.74,5.43c4.6,3.6,8.56,7.59,12.75,11.51c4.24,3.89,8.01,8.07,11.85,12.22
						c15.4,16.66,28.57,34.79,41.04,53.31c24.5,37.26,45.73,76.15,65.26,115.77l13.9,30c4.58,10.02,9.45,19.94,13.54,30.14
						l12.78,30.43l6.39,15.22l5.98,15.36l11.86,30.75c3.93,10.26,8.02,20.46,11.56,30.84l22,62.04c3.29,9.28-1.56,19.46-10.84,22.75
						c-5.61,1.99-11.54,1-16.09-2.14l-0.53-0.37c-1.17-0.82-3.25-2.14-4.99-3.2c-1.88-1.08-3.72-2.22-5.67-3.23
						c-3.84-2.08-7.79-4.01-11.78-5.72c-7.98-3.5-16.2-6.15-24.32-7.66c-4.08-1-8.08-1.12-12.09-1.62
						c-3.91,0.11-7.91-0.24-11.63,0.47c-3.87,0.19-7.39,1.39-11.01,2.24c-1.82,0.43-3.41,1.41-5.14,2.04
						c-1.68,0.74-3.48,1.25-4.99,2.39l-4.76,2.91c-1.73,0.84-2.73,2.28-4.18,3.32c-2.96,2.02-4.85,4.99-7.28,7.5
						c-4,5.77-6.97,12.54-8.89,20.11c-3.49,15.38-2.67,33.24,0.88,50.76c0.83,4.39,1.89,8.78,3.08,13.12
						c0.56,2.18,1.22,4.32,1.87,6.47l1.02,3.17l0.8,2.5c1.3,4.33,1.03,9.64-0.96,13.98c-1.94,4.38-5.34,7.89-9.59,10.04
						c-2.13,1.05-4.47,1.77-6.84,2.02c-2.22,0.31-5.03,0.04-6.51-0.29l-3.09-0.61c-2.09-0.37-4.18-0.71-6.3-0.97
						c-4.21-0.52-8.44-0.86-12.56-0.85c-8.25-0.05-16.18,1-22.84,3.38c-6.63,2.48-11.78,6.05-15.73,11.1
						c-2.03,2.53-3.51,5.49-5.03,8.85c-1.37,3.79-2.89,7.56-3.7,11.58c-1.9,7.96-2.69,16.34-2.31,24.94
						c0.36,8.6,1.63,17.35,3.56,26.16c1.92,8.68,4.69,17.89,7.69,25.95l0.32,0.85c1.74,4.66-0.63,9.84-5.29,11.58
						c-3.74,1.39-7.82,0.13-10.19-2.83c-7.03-8.83-12.11-17.73-16.35-27.68c-4.21-9.84-7.2-20.35-8.77-31.29
						c-1.66-10.94-1.36-22.37,0.37-33.66c0.76-5.69,2.36-11.24,4-16.8c2.12-5.75,4.77-11.73,8.58-17.14
						c7.41-10.99,18.8-19.48,30.54-23.87c11.76-4.51,23.59-6.06,34.93-6.27c5.69-0.12,11.28,0.2,16.82,0.77
						c2.77,0.28,5.53,0.66,8.28,1.09l4.15,0.73c-0.88-0.22-3.07-0.43-4.68-0.2c-1.75,0.21-3.51,0.7-5.08,1.51
						c-3.17,1.57-5.65,4.18-7.11,7.42c-1.48,3.22-1.68,7.23-0.73,10.38c0.38,1.22,0.15,0.46,0.14,0.44l-0.16-0.48l-0.32-0.96
						l-1.25-3.83c-0.78-2.55-1.59-5.09-2.26-7.66c-1.44-5.12-2.71-10.28-3.74-15.52c-4.24-20.84-6.02-43.04-1.01-66.13
						c2.76-11.49,7.5-23.03,14.78-33.4c7.64-10.06,17.51-18.62,28.16-24.24c2.54-1.69,5.45-2.73,8.27-3.93
						c2.85-1.1,5.63-2.49,8.57-3.26c5.9-1.53,11.81-3.18,17.79-3.57c6-0.93,11.85-0.57,17.75-0.55c5.73,0.62,11.58,1.03,17.06,2.34
						c11.16,2.18,21.7,5.73,31.67,10.15c5.01,2.19,9.88,4.61,14.65,7.23c2.4,1.28,4.73,2.72,7.1,4.11c2.42,1.52,4.51,2.81,7.34,4.83
						l-27.46,20.24l-21.65-61.32c-3.49-10.27-7.5-20.32-11.36-30.43l-11.64-30.31l-5.86-15.14l-6.26-14.95l-12.52-29.91
						c-4.05-10.03-8.63-19.79-13.05-29.63l-13.33-29.49c-18.98-38.63-38.09-77.24-60.77-113.41
						c-11.55-17.87-23.01-35.84-35.83-52.48c-3.12-4.24-6.19-8.56-9.6-12.46c-3.37-3.94-6.45-8.31-10.02-11.96l-5.16-5.79
						c-1.73-1.91-3.58-3.58-5.36-5.41c-1.76-1.91-3.59-3.52-5.43-5.13c-0.92-0.83-1.83-1.72-2.69-2.36
						c-0.84-0.69-1.93-1.55-2.23-1.87l-2.29-2.45c-3.3-3.53-3.11-9.06,0.42-12.36C256.49,221.42,260.04,220.85,263.06,222z"/>
				</g>
			</g>
			<g>
				<g>
					<path class="st12" d="M1589.36,755.57c1.56-0.73,70.97-33.3,113.3-1.85c42.74,31.82,7.76,132.16,7.76,132.16
						c125.61-6.03,58.78,139.15,56.68,143.6c0,0.05-0.05,0.05-0.05,0.09c0,0-1.62,52.63,38.58,56.38
						c40.25,3.76,71.58-11.65,117.79-279.92c46.21-268.32-12.31-469.26-27.3-472.86c-14.99-3.55-43.9,27.33-43.9,27.33
						C1735.57,474.45,1591.59,751.22,1589.36,755.57z"/>
				</g>
				<g class="st4">
					<path class="st5" d="M1589.36,755.57c1.56-0.73,70.97-33.3,113.3-1.85c42.74,31.82,7.76,132.16,7.76,132.16
						c125.61-6.03,58.78,139.15,56.68,143.6c163.08-274.13,85.11-668.97,85.11-668.97C1735.57,474.45,1591.59,751.22,1589.36,755.57
						z"/>
				</g>
				<g>
					<path class="st5" d="M1894.17,343.78c-0.34,0.28-1.53,0.99-2.45,1.57c-0.94,0.53-1.96,1.3-2.97,2
						c-2.03,1.37-4.05,2.73-6.04,4.4c-2,1.59-4.05,3.01-6.01,4.68l-5.86,5.08c-4.01,3.16-7.62,7.1-11.47,10.58
						c-3.88,3.43-7.48,7.31-11.12,11.12c-14.84,14.86-28.51,31.22-42.25,47.46c-27.13,32.97-51.02,68.82-74.78,104.7l-16.99,27.54
						c-5.64,9.2-11.43,18.28-16.73,27.71l-16.24,28.06l-8.12,14.03l-7.75,14.26l-15.43,28.57c-5.12,9.54-10.39,18.99-15.16,28.73
						l-29.31,58.04l-24.65-23.59c3.07-1.64,5.3-2.65,7.9-3.85c2.52-1.08,5.02-2.21,7.56-3.17c5.07-1.99,10.2-3.76,15.45-5.29
						c10.46-3.12,21.37-5.28,32.71-6.02c5.61-0.6,11.46-0.26,17.22-0.14c5.85,0.73,11.7,1.12,17.54,2.81
						c5.88,1.15,11.54,3.54,17.19,5.82c2.83,1.13,5.39,2.88,8.09,4.33c2.64,1.55,5.4,2.95,7.7,4.96
						c9.85,6.94,18.53,16.69,24.83,27.64c5.89,11.21,9.12,23.26,10.38,35.01c2.01,23.54-2.6,45.33-9.46,65.46
						c-1.7,5.07-3.62,10.02-5.7,14.91c-1,2.46-2.12,4.88-3.23,7.31l-1.73,3.64l-0.44,0.91l-0.22,0.45
						c-0.02,0.02-0.34,0.74,0.19-0.42c1.35-3.01,1.66-7.01,0.6-10.39c-1.03-3.4-3.15-6.3-6.1-8.27c-1.46-1-3.14-1.72-4.85-2.15
						c-1.57-0.43-3.77-0.5-4.67-0.4l4.21-0.2c2.79-0.08,5.57-0.1,8.35-0.03c5.57,0.14,11.15,0.54,16.78,1.39
						c11.22,1.66,22.75,4.71,33.84,10.69c11.08,5.85,21.29,15.74,27.24,27.58c3.08,5.85,4.96,12.13,6.32,18.1
						c0.92,5.72,1.8,11.43,1.82,17.17c0.27,11.43-0.9,22.8-3.94,33.43c-2.95,10.65-7.27,20.7-12.7,29.91
						c-5.47,9.33-11.65,17.51-19.75,25.36c-3.57,3.46-9.27,3.37-12.73-0.19c-2.78-2.86-3.27-7.1-1.51-10.45l0.43-0.82
						c4.01-7.61,7.94-16.39,10.95-24.75c3.04-8.48,5.42-17.01,6.88-25.49c1.47-8.48,1.77-16.9,0.9-25.04
						c-0.29-4.1-1.32-8.03-2.19-11.96c-1.07-3.52-2.17-6.66-3.85-9.42c-3.27-5.51-7.92-9.71-14.18-13.02
						c-6.3-3.22-14.04-5.27-22.22-6.28c-4.09-0.53-8.32-0.74-12.57-0.76c-2.13-0.01-4.25,0.05-6.37,0.15l-3.14,0.21
						c-1.51,0.14-4.33,0.05-6.5-0.54c-2.31-0.56-4.54-1.57-6.52-2.88c-3.94-2.67-6.87-6.59-8.23-11.18
						c-1.42-4.56-1.01-9.85,0.83-13.99l1.11-2.38l1.42-3.02c0.91-2.05,1.85-4.08,2.68-6.18c1.73-4.15,3.34-8.37,4.73-12.62
						c5.76-16.92,8.86-34.53,7.37-50.23c-0.93-7.75-3.01-14.85-6.24-21.09c-2.09-2.8-3.58-5.99-6.26-8.37
						c-1.3-1.22-2.11-2.77-3.72-3.83l-4.35-3.5c-1.35-1.33-3.06-2.06-4.64-3.01c-1.63-0.85-3.09-2.03-4.84-2.68
						c-3.48-1.31-6.82-2.95-10.64-3.63c-3.6-1.18-7.61-1.34-11.47-1.95c-4.04-0.02-8.02-0.41-12.2,0.06
						c-8.25,0.46-16.74,2.04-25.1,4.49c-4.18,1.19-8.34,2.59-12.42,4.17c-2.06,0.75-4.03,1.65-6.03,2.48
						c-1.87,0.84-4.1,1.88-5.36,2.54l-0.48,0.25c-8.72,4.57-19.49,1.2-24.06-7.51c-2.76-5.27-2.58-11.38-0.11-16.33l29.76-58.72
						c4.84-9.84,10.2-19.44,15.41-29.11l15.69-28.98l7.89-14.47l8.28-14.27l16.57-28.54c5.37-9.6,11.46-18.81,17.28-28.16
						l17.63-27.98c24.44-36.8,50.46-72.65,79.53-106.47c14.73-16.77,30.11-33.07,47.52-47.62c4.34-3.63,8.62-7.29,13.32-10.61
						c4.65-3.35,9.1-6.8,14.12-9.79l7.38-4.52c2.5-1.46,5.19-2.76,7.78-4.12c2.55-1.36,5.36-2.54,8.17-3.68
						c1.39-0.58,2.76-1.13,4.36-1.61c1.59-0.49,2.85-0.96,5.12-1.51c4.69-1.13,9.42,1.76,10.55,6.45c0.81,3.35-0.43,6.72-2.92,8.78
						L1894.17,343.78z"/>
				</g>
			</g>
			<g>
				<path class="st5" d="M1097.03,1973c50.45-3.74,100.31-9.38,149.46-18.44c24.52-4.73,48.96-9.76,73.03-16.18
					c12.08-3.03,24.04-6.49,36.01-9.9c11.87-3.74,23.81-7.24,35.5-11.48c11.78-3.98,23.39-8.42,35.04-12.74
					c11.54-4.62,23.09-9.19,34.43-14.26c22.73-10.02,45.18-20.66,66.99-32.51c21.91-11.66,43.18-24.45,63.96-37.92
					c10.32-6.82,20.52-13.82,30.49-21.07c4.97-3.64,9.85-7.37,14.7-11.09c4.74-3.68,9.75-7.72,13.8-11.23l0,0l0.06-0.06
					c1.76-1.62,3.81-2.84,5.91-3.64c14.19-5.33,29.09-11.95,43.27-18.81c14.25-6.98,28.26-14.44,41.76-22.6
					c26.99-16.23,52.43-35.02,72.85-57.31c10.1-11.17,18.68-23.3,24.88-36.11c1.44-3.28,2.82-6.36,4.09-9.85
					c1.2-3.53,2.55-7.06,3.47-10.58c2.15-7.04,3.57-14.04,4.15-20.67c0.6-6.63,0.21-12.86-1.29-17.95
					c-1.45-5.17-4.04-8.95-7.72-12.18c-3.74-3.16-8.89-5.69-14.96-7.17c-3.01-0.76-6.2-1.3-9.46-1.6c-1.62-0.17-3.27-0.24-4.89-0.29
					c-1.48-0.04-3.53,0.01-4.25,0.06l-0.16,0.01c-9.41,0.66-17.57-6.44-18.22-15.85c-0.46-6.59,2.9-12.57,8.18-15.79
					c7.59-4.6,15.24-11.69,22.13-19.59c6.89-7.98,13.26-16.77,18.91-26.07c11.29-18.52,20.46-38.93,25.32-59.29
					c1.21-5.07,2.12-10.13,2.57-15.02c0.49-4.89,0.59-9.68,0.06-13.91c-0.49-4.25-1.54-7.95-2.98-10.6
					c-0.44-1.26-2.14-2.93-3.12-4.46l-0.84-1.19l-0.98-0.83c-0.64-0.57-1.25-1.15-1.85-1.77c-0.57-0.7-1.35-0.82-1.97-1.31
					c-0.68-0.34-1.22-1.01-1.98-1.19c-1.47-0.44-2.75-1.27-4.45-1.38c-3.09-0.8-6.94-0.59-11.01,0.1c-4.08,0.6-8.49,2.24-12.81,4.07
					c-2.17,0.94-4.33,2.04-6.44,3.2c-1.03,0.61-2.12,1.18-3.09,1.82c-0.94,0.56-2.14,1.37-2.57,1.67l-0.21,0.15
					c-7.77,5.4-18.44,3.47-23.84-4.29c-2.32-3.34-3.29-7.24-3.02-11.01c0.69-9.51,1.23-19.07,1.26-28.73
					c0.08-9.64-0.08-19.33-0.57-29.04c-0.46-9.7-1.14-19.42-2.08-29.11c-0.93-9.61-2.11-19.54-3.52-28.66l-0.01-0.06
					c-1.04-6.77,2.03-13.23,7.33-16.86c1.08-0.73,3.16-2.45,4.8-3.71c1.73-1.37,3.49-3.01,5.23-4.49c3.55-2.91,6.86-6.45,10.3-9.67
					c3.49-3.18,6.59-6.95,9.91-10.39l4.89-5.29l4.64-5.59l9.27-11.19l8.69-11.75c5.99-7.67,11.17-16.01,16.56-24.17
					c5.57-8.04,10.29-16.68,15.23-25.17l7.37-12.76l6.65-13.21l6.65-13.2l3.33-6.6c1.05-2.23,1.99-4.52,2.98-6.78l11.82-27.19
					c2.08-4.48,3.72-9.16,5.44-13.81l5.16-13.94l5.16-13.94l2.58-6.97l2.21-7.11l8.8-28.47l4.37-14.24l3.64-14.48
					c4.71-19.34,10.24-38.47,13.65-58.15l5.81-29.34c0.92-4.9,2.04-9.76,2.81-14.69l2.18-14.82
					c13.05-78.87,18.04-158.74,15.84-238.47c-1.76-39.82-4.4-79.64-10-119.12c-5.44-39.48-12.64-78.71-21.99-117.44
					c-9.42-38.7-20.85-76.91-34.53-114.24c-3.57-9.27-6.86-18.66-10.7-27.8c-1.86-4.51-3.73-9.39-5.59-13.59l-2.73-5.69
					c-0.89-1.91-2.15-3.6-3.19-5.42c-8.77-14.31-22.25-25.48-37.62-32.2c-7.77-3.21-15.95-5.31-24.28-6.25
					c-8.35-0.89-16.77-0.24-24.98,1.34l-6.12,1.43l-5.95,2.06c-1.91,0.54-4.17,1.66-6.33,2.61l-6.52,2.92
					c-8.8,3.57-17.09,8.59-25.61,12.99c-33.42,19.32-64.28,44.02-93.19,70.87c-28.87,27-55.68,56.51-81.19,87.14
					c-25.47,30.69-49.64,62.6-72.61,95.41c-22.95,32.82-44.97,66.35-65.89,100.58c-20.91,34.12-41.16,69.12-59.57,104.17l-0.02,0.04
					c-4.12,7.85-13.55,11.15-21.61,7.94c-49.64-19.97-101.85-34.53-154.93-45.13c-53.09-10.58-107.01-17.96-161.05-21.21
					c-54.01-3.69-108.43-3.27-162.44,0.44c-53.99,3.73-107.64,11.49-159.43,24.95c-8.58,2.23-17.34-2.44-20.39-10.57l-0.04-0.12
					c-13.77-37.11-29.39-74.42-45.76-110.93c-16.37-36.62-33.93-72.69-52.49-108.18c-18.59-35.47-38.48-70.21-59.81-103.91
					c-21.39-33.64-44.2-66.34-69.38-96.81c-25.24-30.33-52.68-58.78-83.36-82.21c-7.89-5.45-15.47-11.49-23.74-16.16l-6.09-3.73
					c-2.02-1.22-4.11-2.62-5.94-3.4l-5.64-2.81l-5.89-2.2c-7.94-2.62-16.21-4.35-24.6-4.53c-8.38-0.13-16.77,0.91-24.88,3.09
					c-16.11,4.7-30.9,14.05-41.43,27.12c-1.26,1.67-2.73,3.19-3.85,4.97l-3.43,5.29c-2.38,3.93-4.86,8.53-7.28,12.77
					c-4.98,8.58-9.44,17.47-14.17,26.2c-18.34,35.27-34.56,71.71-48.85,108.88c-14.22,37.21-26.38,75.21-36.83,113.66
					c-10.61,38.44-18.32,77.6-25.16,116.86c-12.38,78.79-17.64,158.65-14.79,238.54l0.26,14.98c0.13,4.99,0.62,9.95,0.9,14.93
					l2.01,29.84c0.87,19.96,3.91,39.63,6.1,59.42l1.76,14.82l2.52,14.68l5.09,29.36l1.28,7.34l1.67,7.24l3.34,14.49l3.33,14.49
					c1.11,4.83,2.14,9.68,3.63,14.39l8.25,28.48c0.7,2.37,1.34,4.76,2.09,7.11l2.46,6.97l4.91,13.95l4.9,13.95l5.68,13.6
					c3.8,9.06,7.38,18.23,11.88,26.92c4.31,8.79,8.38,17.72,13.34,26.09l7.12,12.76l7.76,12.28l3.89,6.14l4.18,5.87
					c2.85,3.84,5.45,7.97,8.5,11.57c3,3.64,5.84,7.57,8.98,10.91c1.54,1.7,3.07,3.54,4.62,5.13c1.46,1.46,3.3,3.42,4.28,4.29
					c5.13,4.55,6.9,11.47,5.13,17.64l-0.02,0.07c-2.56,8.87-5,18.57-7.15,27.98c-2.17,9.49-4.09,19.04-5.78,28.6
					c-1.73,9.56-3.12,19.15-4.28,28.73c-1.2,9.58-1.89,19.14-2.42,28.65c-0.53,9.44-8.61,16.67-18.06,16.14
					c-4.07-0.23-7.72-1.85-10.52-4.39l-0.2-0.19c-0.39-0.36-1.48-1.31-2.34-1.99c-0.88-0.76-1.89-1.46-2.83-2.2
					c-1.95-1.41-3.94-2.78-5.98-3.99c-4.05-2.37-8.22-4.56-12.19-5.68c-3.96-1.21-7.75-1.91-10.91-1.51
					c-1.69-0.11-3.07,0.56-4.59,0.8c-0.77,0.09-1.39,0.68-2.11,0.93c-0.68,0.41-1.47,0.43-2.12,1.05c-0.67,0.53-1.35,1.04-2.06,1.52
					l-1.07,0.7l-0.98,1.07c-1.17,1.4-3.07,2.83-3.66,4.03c-1.77,2.45-3.28,5.99-4.31,10.14c-1.07,4.12-1.59,8.88-1.72,13.8
					c-0.19,4.91,0.07,10.04,0.62,15.23c2.21,20.81,8.7,42.22,17.53,62.04c4.42,9.94,9.61,19.47,15.42,28.27
					c5.82,8.71,12.5,16.72,19.44,22.26c7.37,5.88,8.58,16.63,2.7,24c-4.12,5.16-10.62,7.3-16.68,6.1l-0.18-0.04
					c-0.71-0.14-2.74-0.45-4.21-0.6c-1.61-0.16-3.26-0.3-4.89-0.34c-3.27-0.11-6.51,0.01-9.59,0.38c-6.2,0.7-11.64,2.55-15.75,5.2
					c-4.07,2.73-7.12,6.15-9.22,11.09c-2.14,4.86-3.32,10.99-3.57,17.64c-0.27,6.65,0.24,13.78,1.47,21.03
					c0.47,3.6,1.35,7.28,2.09,10.93c0.82,3.62,1.79,6.86,2.8,10.29c4.51,13.5,11.47,26.62,20.06,38.99
					c17.4,24.72,40.23,46.61,64.92,66.16c12.35,9.82,25.28,19.01,38.52,27.75c13.18,8.62,27.11,17.09,40.51,24.19l0,0
					c2.01,1.05,3.72,2.43,5.12,4.04l0.33,0.39c3.5,4.06,7.89,8.77,12.06,13.09c4.26,4.39,8.64,8.71,13.01,13.05
					c8.81,8.63,17.98,16.96,27.28,25.13c18.74,16.23,38.27,31.61,58.37,46.23c40.34,29.06,83.05,54.96,127.77,76.98
					c22.32,11.08,45.14,21.19,68.35,30.37c23.13,9.38,46.81,17.42,70.69,24.79c12,3.48,23.9,7.38,36.05,10.42l18.1,5.08
					c6.08,1.51,12.17,3,18.23,4.66c6.06,1.66,12.15,3.23,18.29,4.59l18.36,4.52c12.25,3.09,24.62,5.57,36.93,8.98l0.26,0.07
					c3.04,0.84,4.81,3.98,3.97,7.02c-0.7,2.54-3.03,4.2-5.54,4.18c-12.85-0.1-25.73-0.51-38.57-1.45
					c-12.79-1.27-25.68-2.17-38.38-4.29c-25.56-3.45-50.79-9-75.78-15.5c-24.9-6.81-49.65-14.34-73.92-23.27
					c-24.39-8.63-48.24-18.74-71.69-29.7c-11.78-5.39-23.3-11.3-34.86-17.15c-11.4-6.15-22.8-12.31-33.95-18.93
					c-22.37-13.09-44.2-27.15-65.24-42.35c-21.11-15.11-41.4-31.38-60.84-48.68c-9.69-8.69-19.23-17.56-28.48-26.81
					c-4.63-4.63-9.16-9.36-13.61-14.22c-4.51-4.96-8.69-9.63-13.33-15.33l5.45,4.43l0,0c-15.47-8.21-29.46-16.77-43.63-26.01
					c-14.02-9.26-27.74-19-40.97-29.52c-26.43-20.99-51.44-44.64-71.74-73.42c-10.02-14.45-18.66-30.4-24.49-47.92
					c-1.32-4.38-2.66-9-3.63-13.34c-0.9-4.34-1.9-8.63-2.51-13.12c-1.48-8.85-2.24-18.1-1.86-27.77c0.41-9.63,2.03-19.88,6.46-30.01
					c4.24-10.12,12.21-19.71,21.82-25.87c9.64-6.21,20.24-9.29,30.23-10.45c5.03-0.6,9.98-0.77,14.87-0.6
					c2.45,0.07,4.88,0.26,7.33,0.51c2.58,0.3,4.61,0.54,7.9,1.21l-14.17,30.06c-11.36-9.12-19.57-19.51-26.77-30.17
					c-7.08-10.72-13.08-21.81-18.17-33.24c-5.11-11.42-9.45-23.12-12.89-35.18c-3.46-12.05-6.12-24.42-7.45-37.31
					c-0.68-6.44-1.03-13.01-0.79-19.79c0.21-6.76,0.88-13.71,2.71-20.93c1.8-7.17,4.64-14.7,9.68-21.78l1.93-2.62
					c0.66-0.81,1.33-1.45,2-2.18l4.09-4.21l2.08-2.06l2.49-1.86l5.07-3.6c1.64-1.23,3.77-1.98,5.66-2.94
					c1.98-0.83,3.86-1.92,5.96-2.43c4.17-1.11,8.4-2.29,12.61-2.35c8.51-0.76,16.46,0.8,23.62,3.01c7.28,2.19,13.55,5.49,19.56,9.02
					c2.99,1.79,5.82,3.72,8.6,5.75c1.37,1.05,2.75,2.04,4.1,3.18c1.42,1.16,2.55,2.1,4.31,3.73l-28.78,11.57
					c0.57-10.46,1.34-20.88,2.63-31.16c1.24-10.29,2.73-20.52,4.56-30.65c1.8-10.14,3.83-20.22,6.11-30.24
					c2.32-10.09,4.74-19.82,7.73-30.18l5.1,17.71c-2.79-2.51-4.36-4.28-6.48-6.39c-1.98-2.04-3.69-4.08-5.54-6.13
					c-3.76-4.05-6.87-8.32-10.29-12.49c-3.47-4.14-6.29-8.58-9.46-12.86l-4.61-6.49l-4.24-6.67l-8.43-13.36l-7.67-13.72
					c-5.33-9.05-9.68-18.53-14.27-27.9c-4.79-9.3-8.59-18.97-12.61-28.55l-5.99-14.39l-5.17-14.66l-5.16-14.66l-2.58-7.33
					c-0.79-2.46-1.46-4.96-2.19-7.43l-8.62-29.78c-1.55-4.94-2.63-9.98-3.79-15l-3.47-15.07l-3.47-15.07l-1.73-7.54l-1.33-7.6
					l-5.28-30.41l-2.6-15.21l-1.83-15.29c-2.27-20.4-5.39-40.75-6.29-61.23l-2.07-30.68c-0.3-5.11-0.79-10.22-0.92-15.34
					l-0.28-15.35c-2.92-81.78,2.47-164.05,15.22-245.03c7.02-40.39,14.97-80.67,25.88-120.23c10.75-39.58,23.27-78.7,37.93-117.04
					c14.73-38.31,31.46-75.88,50.43-112.37c4.89-9.05,9.51-18.23,14.68-27.15c2.6-4.54,4.9-8.85,7.75-13.57l4.82-7.43
					c1.61-2.47,3.61-4.68,5.42-7.02c14.92-18.43,35.8-31.73,58.49-38.27c11.41-3.12,23.24-4.59,35.08-4.36
					c11.85,0.27,23.6,2.63,34.81,6.39l8.3,3.14l7.95,3.92c2.8,1.3,4.91,2.72,7.22,4.11l6.85,4.18c9.34,5.33,17.65,11.89,26.37,17.96
					c33.65,25.71,62.64,55.93,89.09,87.7c26.35,31.89,49.89,65.68,71.89,100.26c21.93,34.63,42.25,70.15,61.2,106.31
					c18.92,36.18,36.77,72.86,53.41,110.08c16.7,37.28,32.36,74.62,46.73,113.33l-20.43-10.69c54.63-14.2,110.22-22.16,165.83-26.02
					c55.62-3.81,111.37-4.24,167.01-0.45c55.67,3.36,110.91,10.91,165.58,21.81c54.66,10.94,108.78,25.95,161.14,47.01l-21.63,7.99
					c19.2-36.56,39.51-71.58,60.84-106.42c21.26-34.78,43.66-68.88,67.05-102.34c23.42-33.44,48.12-66.07,74.3-97.61
					c26.24-31.49,53.9-61.98,84.12-90.24c30.3-28.12,62.92-54.39,99.58-75.58c9.43-4.91,18.51-10.35,28.46-14.44l7.33-3.27
					c2.47-1.08,4.75-2.22,7.69-3.15l8.39-2.87l8.64-2.06c11.6-2.29,23.55-3.13,35.34-1.88c11.77,1.29,23.32,4.26,34.23,8.81
					c21.67,9.38,40.68,25.24,53.12,45.43c1.49,2.55,3.19,5,4.47,7.66l3.83,7.99c2.22,5.05,3.95,9.62,5.95,14.45
					c3.98,9.5,7.39,19.2,11.09,28.8c14.15,38.62,25.93,78.02,35.64,117.9c9.63,39.9,17.05,80.3,22.65,120.93
					c5.76,40.63,8.49,81.6,10.29,122.56c2.28,81.94-2.9,164.22-16.25,244.96l-2.24,15.18c-0.79,5.06-1.93,10.06-2.88,15.1
					l-5.97,30.16c-3.52,20.19-9.21,39.98-14.07,59.92l-3.77,14.93l-4.52,14.75l-9.12,29.48l-2.29,7.37l-2.68,7.25l-5.36,14.5
					l-5.37,14.5c-1.79,4.83-3.51,9.69-5.68,14.4l-12.36,28.43c-1.05,2.36-2.03,4.75-3.13,7.09l-3.49,6.94l-6.99,13.88l-7,13.88
					l-7.78,13.51c-5.22,8.99-10.22,18.1-16.16,26.71c-5.75,8.71-11.27,17.55-17.72,25.85l-9.36,12.63l-10.07,12.17l-5.06,6.07
					l-5.4,5.85c-3.69,3.84-7.06,7.88-11.02,11.55c-3.93,3.7-7.55,7.54-11.81,11.07c-2.1,1.79-4.05,3.6-6.28,5.37
					c-2.37,1.83-4.15,3.38-7.24,5.51l7.32-16.91c1.64,10.65,2.8,20.61,3.81,30.92c0.99,10.23,1.71,20.48,2.2,30.77
					c0.52,10.28,0.69,20.61,0.6,30.98c-0.04,10.36-0.61,20.79-1.38,31.24l-27.07-15.16c1.95-1.39,3.2-2.18,4.75-3.15
					c1.48-0.96,2.98-1.76,4.47-2.63c3.01-1.66,6.07-3.22,9.26-4.61c6.41-2.73,13.06-5.2,20.56-6.44c7.39-1.27,15.47-1.8,23.81,0.03
					c4.17,0.6,8.2,2.31,12.2,3.95c2.02,0.78,3.74,2.1,5.6,3.18c1.76,1.19,3.77,2.21,5.24,3.64l4.57,4.22l2.23,2.16l1.8,2.31
					l3.52,4.69c0.57,0.81,1.16,1.53,1.71,2.42l1.58,2.85c4.09,7.67,5.95,15.5,6.82,22.84c0.88,7.39,0.67,14.37,0.01,21.1
					c-0.63,6.76-1.81,13.23-3.31,19.53c-2.96,12.62-7.19,24.54-12.16,36.05c-4.95,11.52-10.76,22.57-17.28,33.24
					c-6.51,10.68-13.87,20.92-22.27,30.64c-8.51,9.65-17.98,18.91-30.41,26.5l-10.21-31.62c3.35-0.24,5.39-0.22,7.99-0.19
					c2.46,0.07,4.9,0.18,7.33,0.43c4.87,0.46,9.76,1.26,14.67,2.5c9.76,2.43,19.88,6.83,28.64,14.23
					c8.74,7.34,15.42,17.87,18.33,28.45c3.1,10.61,3.4,20.99,2.57,30.59c-0.86,9.63-2.8,18.72-5.39,27.3
					c-1.18,4.38-2.72,8.5-4.17,12.7c-1.52,4.18-3.44,8.59-5.31,12.76c-8.02,16.63-18.63,31.34-30.42,44.39
					c-23.82,25.95-51.65,46.21-80.54,63.64c-14.47,8.74-29.32,16.65-44.41,24.04c-15.24,7.35-30.21,14.06-46.6,20.22l5.97-3.69
					l-0.01,0.01c-5.27,5.12-9.96,9.29-15.01,13.7c-4.97,4.33-10.08,8.44-15.19,12.54c-10.23,8.17-20.78,15.84-31.46,23.31
					c-21.39,14.9-43.65,28.41-66.41,40.97c-45.68,24.8-93.6,45.46-143.07,61.14c-24.73,7.84-49.72,14.85-75.06,20.29
					c-12.63,2.91-25.39,5.14-38.12,7.5c-6.35,1.26-12.79,1.97-19.19,2.93c-6.41,0.85-12.79,1.96-19.23,2.56
					c-51.37,5.89-103.2,7.18-154.37,2.35c-4.18-0.39-7.25-4.1-6.85-8.28c0.35-3.75,3.37-6.6,7-6.87L1097.03,1973z"/>
			</g>
		</g>
		<g>
			<g>
				<path class="st13" d="M2224.54,706.51c-23.21-37.98-34.66-83.56-29.76-131.26c11.89-115.76,115.36-199.96,231.12-188.08
					c115.76,11.89,199.96,115.36,188.08,231.12c-11.89,115.76-115.36,199.96-231.12,188.08c-32.2-3.31-61.94-13.72-87.87-29.49
					l-97.51,21.87L2224.54,706.51z"/>
			</g>
			<g class="st14">
				<g>
					<path class="st9" d="M2421.76,427.49c-108.14-11.1-205.53,61.66-227.58,165.65c-0.03-7.43,0.29-14.92,1.07-22.48
						c11.89-115.76,115.36-199.96,231.12-188.08c115.76,11.89,199.96,115.36,188.08,231.12c-0.78,7.59-1.97,15.03-3.52,22.33
						C2610.52,529.68,2529.93,438.6,2421.76,427.49z"/>
				</g>
			</g>
			<g>
				<path class="st5" d="M2404.55,825.38c-7.78,0-15.61-0.4-23.52-1.21c-31.66-3.25-61.57-12.76-89.01-28.28l-90.62,20.32
					c-6.19,1.38-12.64-0.6-16.97-5.22c-4.33-4.62-5.9-11.19-4.11-17.27l24.88-84.82c-23.34-41.32-33.09-87.98-28.21-135.48
					c12.87-125.39,125.34-216.95,250.74-204.05c60.74,6.24,115.42,35.75,153.96,83.11c38.54,47.36,56.33,106.89,50.09,167.63
					C2619.71,737.61,2520.18,825.37,2404.55,825.38z M2294.99,759c3.25,0,6.47,0.89,9.3,2.61c24.57,14.94,51.62,24.02,80.4,26.98
					c105.76,10.85,200.64-66.35,211.5-172.11c5.26-51.23-9.74-101.45-42.25-141.39c-32.51-39.95-78.63-64.84-129.86-70.1
					c-51.25-5.26-101.45,9.74-141.39,42.25c-39.95,32.5-64.84,78.62-70.1,129.85c-4.35,42.32,5.07,83.85,27.23,120.1
					c2.63,4.31,3.32,9.52,1.9,14.37l-18.51,63.1l67.88-15.22C2292.37,759.14,2293.68,759,2294.99,759z"/>
			</g>
			<g class="st4">
				<path class="st1" d="M2223.35,704.49c57.71,48.81,137.22,70.19,216.17,50.54c87.56-21.79,152.07-88.47,175.28-169.39
					c0.55,10.73,0.31,21.64-0.83,32.66c-11.89,115.76-115.36,199.96-231.12,188.08c-32.2-3.31-61.94-13.72-87.87-29.49l-97.51,21.87
					l27.06-92.24C2224.13,705.85,2223.75,705.16,2223.35,704.49z"/>
			</g>
			<g>
				<path class="st9" d="M2337,537.61L2337,537.61c18.23-18.23,47.8-14.97,66.03,3.27l2.84,2.84l2.84-2.84
					c18.23-18.23,47.8-21.5,66.03-3.27l0,0c18.23,18.23,18.23,47.8,0,66.03l-2.84,2.84l-57.33,57.33c-4.81,4.81-12.6,4.81-17.41,0
					l-57.33-57.33l-2.84-2.84C2318.77,585.41,2318.77,555.85,2337,537.61z"/>
			</g>
		</g>
	</g>
</g>
</svg>
